# xmcd
#
# Track frame offsets:
# 162
# 12102
# 25947
# 38425
# 47765
# 63255
# 76072
# 89045
# 100865
# 114790
# 129392
# 141517
# 156070
# 167300
# 180147
# 193530
# 210577
# 219737
# 235830
# 251460
#
# Disc length: 3471 seconds
#
# Revision: 3
# Processed by: cddbd v1.5.1PL0 Copyright (c) Steve Scherf et al.
# Submitted via: Axialis_AX_CDPlayer 2.6
#
DISCID=f50d8d14
DTITLE=Foster and Allen - Heart Strings
DYEAR=1900
DGENRE=
TTITLE0=Que Sera Sera
TTITLE1=I Love You More and More Everyday
TTITLE2=When You Are In Love It's The Loveliest Night of the Year
TTITLE3=I'll Tell Me Ma
TTITLE4=Send Me the Pillow You Dream On
TTITLE5=The Ring Your Mother Wore
TTITLE6=The Old Boreen
TTITLE7=Rose and Violets
TTITLE8=Liverpool Lou
TTITLE9=Brian O'Kane's March
TTITLE10=There's a Rainbow Somewhere
TTITLE11=An Old Time Waltz
TTITLE12=The Irish Rover
TTITLE13=Sweet Thames Flow Softly
TTITLE14=On My Mind
TTITLE15=Love Me
TTITLE16=Little Beggar Man
TTITLE17=The Village Where I Went To School
TTITLE18=you're never too old to love
TTITLE19=polkas
EXTD=
EXTT0=
EXTT1=
EXTT2=
EXTT3=
EXTT4=
EXTT5=
EXTT6=
EXTT7=
EXTT8=
EXTT9=
EXTT10=
EXTT11=
EXTT12=
EXTT13=
EXTT14=
EXTT15=
EXTT16=
EXTT17=
EXTT18=
EXTT19=
PLAYORDER=
